<svg xmlns="http://www.w3.org/2000/svg" viewBox="0 0 96 96" role="img" aria-label="Wiki">
  <path d="M18 24c5-2.8 11-4.3 18-4.3 8.2 0 12 2.8 12 2.8s3.8-2.8 12-2.8c7 0 13 1.5 18 4.3v50.5c-5-2.8-11-4.3-18-4.3-8.2 0-12 2.8-12 2.8s-3.8-2.8-12-2.8c-7 0-13 1.5-18 4.3V24z" fill="#eef3f8" fill-opacity=".12" stroke="#7c8da1" stroke-width="4" stroke-linejoin="round"/>
  <path d="M28 34.8c2.4-.5 4.9-.6 7.5-.3M54.5 35.5c2.2-.4 4.5-.5 6.8-.3M27.5 40.5c1.7-.4 3.5-.6 5.2-.6M35.3 39.9c2.1 0 4 .2 5.9.7M27.5 47.5c2.5-.6 5.1-.8 7.7-.5M38 47.2c1.8.1 3.5.4 5.2.9M27.5 54.5c1.4-.3 2.8-.5 4.2-.5M34.8 54.1c2.7 0 5.4.4 7.8 1.2M27.5 61.6c2.1-.5 4.3-.7 6.5-.5M37.3 61.3c1.8.2 3.5.5 5 .9M52.5 42.5c2.4-.5 4.8-.7 7.1-.6M62.8 42c1.1.1 2.1.2 3.1.4M68.1 42.9c1.2.3 2.3.7 3.3 1.1M52 49.5c1.4-.4 2.9-.6 4.4-.7M58.9 48.7c3-.1 5.9.3 8.6 1.2M69.5 50.6c.7.2 1.4.5 2.1.8M52.6 56.8c3.2-.7 6.5-.7 9.6-.2M65.4 57.1c1.7.3 3.4.8 4.9 1.4M52.3 63.3c2.2-.4 4.5-.5 6.8-.2M62.3 63.4c2.4.3 4.7.8 6.8 1.6" fill="none" stroke="#1c3146" stroke-width="2.3" stroke-linecap="round"/>
  <path d="M48 24v46" fill="none" stroke="#7c8da1" stroke-width="2.5" stroke-linecap="round"/>
  <path d="M68 22.5v16l-4-3-4 3V21.5c2.9.1 5.6.4 8 .8z" fill="#3c7adf"/>
</svg>
