<svg xmlns="http://www.w3.org/2000/svg" viewBox="0 0 96 96" role="img" aria-label="Chat">
  <path d="M20 23h43c6.1 0 11 4.9 11 11v20.5c0 6.1-4.9 11-11 11H43L27 78V65.5h-7c-6.1 0-11-4.9-11-11V34c0-6.1 4.9-11 11-11z" fill="none" stroke="#7c8da1" stroke-width="4" stroke-linejoin="round"/>
  <path d="M25 32h34c4.4 0 8 3.6 8 8v10c0 4.4-3.6 8-8 8H41.2L30 66.7V58h-5c-4.4 0-8-3.6-8-8V40c0-4.4 3.6-8 8-8z" fill="#1c3146"/>
  <path d="M31 45h2M42 45h2M53 45h2" fill="none" stroke="#eef3f8" stroke-width="5.5" stroke-linecap="round"/>
  <path d="M63 27l1.7 5.1 5.1 1.7-5.1 1.7-1.7 5.1-1.7-5.1-5.1-1.7 5.1-1.7z" fill="#3c7adf"/>
</svg>
